<svg id="SvgjsSvg1025" width="288" height="288" xmlns="http://www.w3.org/2000/svg" version="1.1" xmlns:xlink="http://www.w3.org/1999/xlink" xmlns:svgjs="http://svgjs.com/svgjs"><circle id="SvgjsCircle1030" r="144" cx="144" cy="144" fill="#ff5f88" transform="matrix(1,0,0,1,0,0)"></circle><defs id="SvgjsDefs1026"></defs><g id="SvgjsG1027" transform="matrix(0.8700000047683716,0,0,0.8700000047683716,18.719999313354492,18.719999313354492)"><svg xmlns="http://www.w3.org/2000/svg" width="288" height="288" viewBox="0 0 32 32"><path style="text-indent:0;text-align:start;line-height:125%;text-transform:none;block-progression:tb" d="m 13,3 14,0 0,26 -9,0 0,-3.5 7,0 0.5,0 0,-0.5 0,-18 0,-0.5 -0.5,0 -10,0 -0.5,0 0,0.5 0,4.34375 C 14.14207,10.812807 13.612987,10.408323 13,10.1875 z m 5,1 0,1 4,0 0,-1 z m -2.5,3.5 9,0 0,17 -6.5,0 0,-9.3125 C 18,14.5692 17.512864,14 16.875,14 L 15.5,14 z M 10.1875,10 c 0.319249,0 0.603352,0.06751 0.875,0.1875 C 9.8759687,10.588596 9,11.679687 9,13 l 0,1 -1,0 0,-1.8125 C 8,10.9693 8.9704223,10 10.1875,10 z M 12,11 c 0.223779,0.343332 0.375,0.741344 0.375,1.1875 L 12.375,14 10,14 10,13 c 0,-1.1186 0.883712,-2 2,-2 z m 1.25,0.46875 C 13.698662,11.834164 14,12.366448 14,13 l 0,1 -0.625,0 0,-1.8125 c 0,-0.243758 -0.07285,-0.490519 -0.125,-0.71875 z M 5.15625,15 l 0.875,0 C 6.0209599,15.063757 6,15.1219 6,15.1875 l 0,0.21875 c -0.00129,0.229 -0.129598,0.43505 -0.28125,0.53125 -0.1526057,0.097 -0.2848942,0.097 -0.4375,0 C 5.1300444,15.8414 5.0019502,15.63445 5,15.40625 5,15.26005 5.046669,15.1254 5.09375,15.0625 5.140831,14.9995 5.150759,15 5.15625,15 z M 7.125,15 c 0.00335,-6.09e-4 0.029875,0 0.03125,0 L 9,15 l 0,0.8125 0,0.25 C 8.4135299,16.268229 8.0000304,16.846859 8,17.5 c -4.31e-5,0.8241 0.6760204,1.5 1.5,1.5 0.823979,0 1.500043,-0.6759 1.5,-1.5 -3e-5,-0.653141 -0.41353,-1.231771 -1,-1.4375 l 0,-0.25 0,-0.8125 4,0 0,0.8125 0,0.25 c -0.58647,0.205729 -0.99997,0.784359 -1,1.4375 -4.3e-5,0.8241 0.67602,1.5 1.5,1.5 0.82398,0 1.500043,-0.6759 1.5,-1.5 -3e-5,-0.653141 -0.41353,-1.231771 -1,-1.4375 l 0,-0.25 L 15,15 16.875,15 C 16.91421,15 17,15.0498 17,15.1875 l 0,9.3125 0,1 0,3.5 -0.125,0 -9.71875,0 C 7.061242,29 7,28.9281 7,28.8125 l 0,-2.9375 0,-5.15625 0,-2.125 0,-3.1875 C 7,15.26005 7.046671,15.1254 7.09375,15.0625 7.1290592,15.01525 7.1149358,15.001828 7.125,15 z M 5,16.90625 c 0.3160753,0.114145 0.6839247,0.114145 1,0 l 0,1.6875 0,2.125 0,0.125 0,5.03125 0,0.03125 0,2.90625 C 6,28.87809 6.0209617,28.936252 6.03125,29 l -0.875,0 C 5.0612589,29 5,28.9277 5,28.8125 l 0,-2.375 0,-5.15625 0,-2.6875 z M 9.5,17 C 9.7806098,17 9.9999867,17.2136 10,17.5 10.000015,17.7865 9.7806309,18 9.5,18 9.219369,18 8.999985,17.7865 9,17.5 9.0000133,17.2136 9.2193902,17 9.5,17 z m 5,0 c 0.28061,0 0.499987,0.2136 0.5,0.5 1.5e-5,0.2865 -0.219369,0.5 -0.5,0.5 -0.280631,0 -0.500015,-0.2135 -0.5,-0.5 1.3e-5,-0.2864 0.21939,-0.5 0.5,-0.5 z m 5.34375,9 c -0.469583,0.07425 -0.849584,0.524619 -0.84375,1 0,0.523599 0.476401,1 1,1 0.523599,0 1,-0.476401 1,-1 0,-0.523599 -0.476401,-1 -1,-1 -0.05198,-0.0041 -0.104273,-0.0041 -0.15625,0 z" color="#000" font-family="sans-serif" font-size="medium" font-weight="400" letter-spacing="0" overflow="visible" word-spacing="0" fill="#000000" class="color000 svgShape"></path></svg></g></svg>