<svg id="SvgjsSvg1045" width="288" height="288" xmlns="http://www.w3.org/2000/svg" version="1.1" xmlns:xlink="http://www.w3.org/1999/xlink" xmlns:svgjs="http://svgjs.com/svgjs"><defs id="SvgjsDefs1046"></defs><g id="SvgjsG1047" transform="matrix(1,0,0,1,0,0)"><svg xmlns="http://www.w3.org/2000/svg" width="288" height="288" viewBox="0 0 32 32"><g font-family="sans-serif" font-size="45.121" font-weight="400" letter-spacing="0" transform="translate(0 -1020.362)" word-spacing="0" fill="#000000" class="color000 svgShape"><path fill="#f2aabd" d="m 12.00094,1037.6512 c 7e-5,1.3617 -1.13267,2.711 -2.5,2.711 -0.56234,0 -1.0795,-0.2012 -1.5,-0.5235 l 0,1.2579 0,5.1875 0,2.0781 8,0 0,-8.5235 c -0.4205,0.3223 -0.93766,0.5235 -1.5,0.5235 -1.36733,0 -2.50007,-1.3493 -2.5,-2.711 z m -2.5,-0.289 c -0.26272,0 -0.50001,0.245 -0.5,0.4961 10e-6,0.2511 0.2373,0.4941 0.5,0.4941 0.2627,0 0.49999,-0.243 0.5,-0.4941 10e-6,-0.2511 -0.23728,-0.4961 -0.5,-0.4961 z m 5,0 c -0.26272,0 -0.50001,0.245 -0.5,0.4961 10e-6,0.2511 0.2373,0.4941 0.5,0.4941 0.2627,0 0.49999,-0.243 0.5,-0.4941 10e-6,-0.2511 -0.23728,-0.4961 -0.5,-0.4961 z" class="colorf8b84e svgShape"></path><path style="line-height:125%;text-indent:0;text-align:start;text-decoration-line:none;text-decoration-style:solid;text-decoration-color:#000;text-transform:none;block-progression:tb;isolation:auto;mix-blend-mode:normal" d="m 12.5,1022.3613 a 0.50005,0.50005 0 0 0 -0.5,0.5 l 0,7.9317 a 0.50005,0.50005 0 1 0 1,0 l 0,-7.4317 14,0 0,26 -9.240234,0 a 0.50005,0.50005 0 1 0 0,1 l 9.740234,0 a 0.50005,0.50005 0 0 0 0.5,-0.5 l 0,-27 a 0.50005,0.50005 0 0 0 -0.5,-0.5 l -15,0 z" color="#000" font-size="medium" overflow="visible" fill="#000000" class="color000 svgShape"></path><path fill-rule="evenodd" d="m 18,1024.3613 0,1 4,0 0,-1 -4,0 z" color="#000" font-size="medium" overflow="visible" style="line-height:125%;text-indent:0;text-align:start;text-decoration-line:none;text-decoration-style:solid;text-decoration-color:#000;text-transform:none;block-progression:tb;isolation:auto;mix-blend-mode:normal" fill="#000000" class="color000 svgShape"></path><path fill="#ff4a7c" d="m 14.00094,1026.3622 0,3.5625 c 1.18527,0.6986 1.99855,1.9778 2,3.4375 l 0.88867,0 c 1.23652,0 2.11133,1.0822 2.11133,2.1816 l 0,9.8184 7,0 0,-19 z" color="#000" overflow="visible" style="isolation:auto;mix-blend-mode:normal" class="color25b39e svgShape"></path><path style="isolation:auto;mix-blend-mode:normal" d="m 21.00094,1047.3622 a 1,1 0 0 1 -1,1 1,1 0 0 1 -1,-1 1,1 0 0 1 1,-1 1,1 0 0 1 1,1 z" color="#000" overflow="visible" fill="#000000" class="color000 svgShape"></path><path style="line-height:125%;text-indent:0;text-align:start;text-decoration-line:none;text-decoration-style:solid;text-decoration-color:#000;text-transform:none;block-progression:tb;isolation:auto;mix-blend-mode:normal" d="M 7.1113281,1034.3613 C 6.4734624,1034.3613 6,1034.9247 6,1035.543 l 0,3.4101 0,2.1426 0,5.1875 0,2.8965 c 0,0.6182 0.473364,1.1816 1.1113281,1.1816 l 9.7773439,0 0.611328,0 a 0.50004997,0.50004997 0 0 0 0.5,-0.5 l 0,-14.3183 c 0,-0.6183 -0.473464,-1.1817 -1.111328,-1.1817 l -9.7773439,0 z m 0,1 9.7773439,0 c 0.03921,0 0.111328,0.044 0.111328,0.1817 l 0,13.8183 -0.111328,0 -9.7773439,0 C 7.0721923,1049.3613 7,1049.3169 7,1049.1797 l 0,-2.8965 0,-5.1875 0,-2.1426 0,-3.4101 c 0,-0.1372 0.072094,-0.1817 0.1113281,-0.1817 z" color="#000" font-size="medium" overflow="visible" fill="#000000" class="color000 svgShape"></path><path style="line-height:125%;text-indent:0;text-align:start;text-decoration-line:none;text-decoration-style:solid;text-decoration-color:#000;text-transform:none;block-progression:tb;isolation:auto;mix-blend-mode:normal" d="m 9.5,1036.3516 c -0.8239231,0 -1.4999616,0.6818 -1.5,1.5058 -4.31e-5,0.8241 0.6760204,1.5039 1.5,1.5039 0.823979,0 1.500043,-0.6798 1.5,-1.5039 -3.8e-5,-0.824 -0.676077,-1.5058 -1.5,-1.5058 z m 0,1 c 0.2806098,0 0.4999867,0.2194 0.5,0.5058 1.5e-5,0.2865 -0.2193691,0.5039 -0.5,0.5039 -0.280631,0 -0.500015,-0.2174 -0.5,-0.5039 1.33e-5,-0.2864 0.2193902,-0.5058 0.5,-0.5058 z" color="#000" font-size="medium" overflow="visible" fill="#000000" class="color000 svgShape"></path><path style="line-height:125%;text-indent:0;text-align:start;text-decoration-line:none;text-decoration-style:solid;text-decoration-color:#000;text-transform:none;block-progression:tb;isolation:auto;mix-blend-mode:normal" d="M12 1030.3613c-1.653712 0-3 1.3492-3 3.0039l0 2.8184 0 .5 1 0 0-.5 0-2.8184c0-1.1186.883712-2.0039 2-2.0039 1.116288 0 2 .8853 2 2.0039l0 2.8184 0 .5 1 0 0-.5 0-2.8184c0-1.6547-1.346288-3.0039-3-3.0039zM5.1679688 1034.3633c-.3639096 0-.6790777.1999-.8730469.459C4.1009527 1035.0813 4 1035.4067 4 1035.7539l0 .012a.50005.50005 0 0 0 0 0c.0031.551.268947 1.0695.7324219 1.3633.4663191.2957 1.0707902.2957 1.5371093 0 .4634749-.2938.7293242-.8123.7324219-1.3633a.50005.50005 0 0 0 0 0l0-.012c0-.1462.046671-.2691.09375-.332.047079-.063.066765-.059.072266-.059a.50005.50005 0 0 0 .050781 0 .50005.50005 0 0 0 .3671875-.2324.50005.50005 0 0 0 .023437-.045.50005.50005 0 0 0 .044922-.1406.50005.50005 0 0 0 .00586-.051.50005.50005 0 0 0-.00391-.1.50005.50005 0 0 0-.00977-.049.50005.50005 0 0 0-.085937-.1797.50005.50005 0 0 0-.03125-.039.50005.50005 0 0 0-.035156-.035.50005.50005 0 0 0-.2207031-.1133.50005.50005 0 0 0-.099609-.012.50005.50005 0 0 0-.00586 0l-2 0zm0 1l.9570312 0c-.034819.1342-.1230469.2451-.1230469.3906l0 .01c-.00129.229-.1159261.4292-.2675781.5254-.1526057.097-.312238.097-.4648438 0C5.1183256 1036.1932 5.0019502 1035.9938 5 1035.7656l0-.012c0-.1462.048622-.2691.095703-.332.047081-.063.066775-.059.072266-.059z" color="#000" font-size="medium" overflow="visible" fill="#000000" class="color000 svgShape"></path><path style="line-height:125%;text-indent:0;text-align:start;text-decoration-line:none;text-decoration-style:solid;text-decoration-color:#000;text-transform:none;block-progression:tb;isolation:auto;mix-blend-mode:normal" d="m 10.179688,1029.3613 c -1.7541033,0 -3.1816411,1.429 -3.1816411,3.1836 l 0,1.9239 0,0.5 1,0 0,-0.5 0,-1.9239 c 0,-1.2182 0.9645634,-2.1836 2.1816411,-2.1836 1.217088,0 2.18164,0.9654 2.18164,2.1836 l 0,1.9239 0,0.5 1,0 0,-0.5 0,-1.9239 c 0,-1.7546 -1.427529,-3.1836 -3.18164,-3.1836 z" color="#000" font-size="medium" overflow="visible" fill="#000000" class="color000 svgShape"></path><path style="line-height:125%;text-indent:0;text-align:start;text-decoration-line:none;text-decoration-style:solid;text-decoration-color:#000;text-transform:none;block-progression:tb;isolation:auto;mix-blend-mode:normal" d="M5.1679688 1034.3613C4.52425 1034.3613 4 1034.9028 4 1035.543l0 3.4101 0 2.7051 0 5.1445 0 2.377c0 .6402.5241598 1.1816 1.1679688 1.1816l2 0a.50005.50005 0 0 0 0-1c-.095008 0-.1660157-.066-.1660157-.1816l0-2.9512 0-5.0176 0-2.2578 0-3.4101c0-.1153.070917-.1817.1660157-.1817a.50005.50005 0 0 0 .099609-.01.50005.50005 0 0 0 .09375-.031.50005.50005 0 0 0 .1269531-.08.50005.50005 0 0 0 .037109-.035.50005.50005 0 0 0 .060547-.078.50005.50005 0 0 0 .023437-.045.50005.50005 0 0 0 .035156-.094.50005.50005 0 0 0 .00977-.049.50005.50005 0 0 0 .00195-.1485.50005.50005 0 0 0-.00977-.049.50005.50005 0 0 0-.056641-.1387.50005.50005 0 0 0-.060547-.08.50005.50005 0 0 0-.035156-.035.50005.50005 0 0 0-.039063-.031.50005.50005 0 0 0-.042969-.027.50005.50005 0 0 0-.042969-.024.50005.50005 0 0 0-.046875-.017.50005.50005 0 0 0-.048828-.014.50005.50005 0 0 0-.048828-.01.50005.50005 0 0 0-.056641 0l-2 0zm0 1l.9082031 0c-.01197.067-.074219.1117-.074219.1817l0 3.4101 0 2.2578 0 5.0176 0 2.9512c0 .07.06225.1146.074219.1816l-.9082031 0C5.0729777 1049.3613 5 1049.2949 5 1049.1797l0-2.377 0-5.1445 0-2.7051 0-3.4101c0-.1153.072888-.1817.1679688-.1817zM14.5 1036.3516c-.823923 0-1.499962.6818-1.5 1.5058-.000043.8241.67602 1.5039 1.5 1.5039.82398 0 1.500043-.6798 1.5-1.5039-.000038-.824-.676077-1.5058-1.5-1.5058zm0 1c.28061 0 .499987.2194.5.5058.000015.2865-.219369.5039-.5.5039-.280631 0-.500015-.2174-.5-.5039.000013-.2864.21939-.5058.5-.5058z" color="#000" font-size="medium" overflow="visible" fill="#000000" class="color000 svgShape"></path></g></svg></g></svg>